<mxfile host="65bd71144e">
    <diagram id="h0PgGAI9Nio3NDzbNO4S" name="第 1 页">
        <mxGraphModel dx="819" dy="571" grid="0" gridSize="10" guides="1" tooltips="1" connect="1" arrows="1" fold="1" page="1" pageScale="1" pageWidth="10000" pageHeight="10000" math="0" shadow="0">
            <root>
                <mxCell id="0"/>
                <mxCell id="1" parent="0"/>
                <mxCell id="55" value="" style="whiteSpace=wrap;html=1;aspect=fixed;fontFamily=Verdana;fontSize=18;" vertex="1" parent="1">
                    <mxGeometry x="240" y="280" width="80" height="80" as="geometry"/>
                </mxCell>
                <mxCell id="58" value="" style="group" vertex="1" connectable="0" parent="1">
                    <mxGeometry x="2600" y="720" width="80" height="40" as="geometry"/>
                </mxCell>
                <mxCell id="56" value="1" style="whiteSpace=wrap;html=1;aspect=fixed;fontFamily=Verdana;fontSize=18;" vertex="1" parent="58">
                    <mxGeometry width="40" height="40" as="geometry"/>
                </mxCell>
                <mxCell id="57" value="" style="whiteSpace=wrap;html=1;aspect=fixed;fontFamily=Verdana;fontSize=18;" vertex="1" parent="58">
                    <mxGeometry x="40" width="40" height="40" as="geometry"/>
                </mxCell>
                <mxCell id="68" value="" style="group" vertex="1" connectable="0" parent="1">
                    <mxGeometry x="2600.0000000000005" y="770" width="80" height="40" as="geometry"/>
                </mxCell>
                <mxCell id="69" value="2" style="whiteSpace=wrap;html=1;aspect=fixed;fontFamily=Verdana;fontSize=18;" vertex="1" parent="68">
                    <mxGeometry width="40" height="40" as="geometry"/>
                </mxCell>
                <mxCell id="70" value="" style="whiteSpace=wrap;html=1;aspect=fixed;fontFamily=Verdana;fontSize=18;" vertex="1" parent="68">
                    <mxGeometry x="40" width="40" height="40" as="geometry"/>
                </mxCell>
                <mxCell id="71" value="" style="group" vertex="1" connectable="0" parent="1">
                    <mxGeometry x="2600" y="820" width="80" height="40" as="geometry"/>
                </mxCell>
                <mxCell id="72" value="3" style="whiteSpace=wrap;html=1;aspect=fixed;fontFamily=Verdana;fontSize=18;" vertex="1" parent="71">
                    <mxGeometry width="40" height="40" as="geometry"/>
                </mxCell>
                <mxCell id="73" value="" style="whiteSpace=wrap;html=1;aspect=fixed;fontFamily=Verdana;fontSize=18;" vertex="1" parent="71">
                    <mxGeometry x="40" width="40" height="40" as="geometry"/>
                </mxCell>
                <mxCell id="74" value="" style="group" vertex="1" connectable="0" parent="1">
                    <mxGeometry x="2600" y="870" width="80" height="40" as="geometry"/>
                </mxCell>
                <mxCell id="75" value="4" style="whiteSpace=wrap;html=1;aspect=fixed;fontFamily=Verdana;fontSize=18;" vertex="1" parent="74">
                    <mxGeometry width="40" height="40" as="geometry"/>
                </mxCell>
                <mxCell id="76" value="" style="whiteSpace=wrap;html=1;aspect=fixed;fontFamily=Verdana;fontSize=18;" vertex="1" parent="74">
                    <mxGeometry x="40" width="40" height="40" as="geometry"/>
                </mxCell>
                <mxCell id="77" value="" style="group" vertex="1" connectable="0" parent="1">
                    <mxGeometry x="2600" y="920" width="80" height="40" as="geometry"/>
                </mxCell>
                <mxCell id="78" value="5" style="whiteSpace=wrap;html=1;aspect=fixed;fontFamily=Verdana;fontSize=18;" vertex="1" parent="77">
                    <mxGeometry width="40" height="40" as="geometry"/>
                </mxCell>
                <mxCell id="79" value="" style="whiteSpace=wrap;html=1;aspect=fixed;fontFamily=Verdana;fontSize=18;" vertex="1" parent="77">
                    <mxGeometry x="40" width="40" height="40" as="geometry"/>
                </mxCell>
                <mxCell id="80" value="" style="group" vertex="1" connectable="0" parent="1">
                    <mxGeometry x="2600" y="970" width="80" height="40" as="geometry"/>
                </mxCell>
                <mxCell id="81" value="6" style="whiteSpace=wrap;html=1;aspect=fixed;fontFamily=Verdana;fontSize=18;" vertex="1" parent="80">
                    <mxGeometry width="40" height="40" as="geometry"/>
                </mxCell>
                <mxCell id="82" value="" style="whiteSpace=wrap;html=1;aspect=fixed;fontFamily=Verdana;fontSize=18;" vertex="1" parent="80">
                    <mxGeometry x="40" width="40" height="40" as="geometry"/>
                </mxCell>
                <mxCell id="87" style="edgeStyle=none;html=1;entryX=0;entryY=0.5;entryDx=0;entryDy=0;fontFamily=Verdana;fontSize=18;" edge="1" parent="1" source="70">
                    <mxGeometry relative="1" as="geometry">
                        <mxPoint x="2719.9999999999995" y="790" as="targetPoint"/>
                    </mxGeometry>
                </mxCell>
                <mxCell id="116" style="edgeStyle=none;html=1;exitX=1;exitY=0.5;exitDx=0;exitDy=0;entryX=0;entryY=0.5;entryDx=0;entryDy=0;fontFamily=Verdana;fontSize=18;" edge="1" parent="1" source="73">
                    <mxGeometry relative="1" as="geometry">
                        <mxPoint x="2720.0000000000005" y="840" as="targetPoint"/>
                    </mxGeometry>
                </mxCell>
                <mxCell id="117" style="edgeStyle=none;html=1;exitX=1;exitY=0.5;exitDx=0;exitDy=0;entryX=0;entryY=0.5;entryDx=0;entryDy=0;fontFamily=Verdana;fontSize=18;" edge="1" parent="1" source="76">
                    <mxGeometry relative="1" as="geometry">
                        <mxPoint x="2719.9999999999995" y="890" as="targetPoint"/>
                    </mxGeometry>
                </mxCell>
                <mxCell id="118" style="edgeStyle=none;html=1;exitX=1;exitY=0.5;exitDx=0;exitDy=0;entryX=0;entryY=0.5;entryDx=0;entryDy=0;fontFamily=Verdana;fontSize=18;" edge="1" parent="1" source="79">
                    <mxGeometry relative="1" as="geometry">
                        <mxPoint x="2719.9999999999995" y="940" as="targetPoint"/>
                    </mxGeometry>
                </mxCell>
                <mxCell id="119" style="edgeStyle=none;html=1;exitX=1;exitY=0.5;exitDx=0;exitDy=0;entryX=0;entryY=0.5;entryDx=0;entryDy=0;fontFamily=Verdana;fontSize=18;" edge="1" parent="1" source="82">
                    <mxGeometry relative="1" as="geometry">
                        <mxPoint x="2719.9999999999995" y="990" as="targetPoint"/>
                    </mxGeometry>
                </mxCell>
                <mxCell id="125" value="" style="group" vertex="1" connectable="0" parent="1">
                    <mxGeometry x="2720" y="720" width="80" height="40" as="geometry"/>
                </mxCell>
                <mxCell id="126" value="2" style="whiteSpace=wrap;html=1;aspect=fixed;fontFamily=Verdana;fontSize=18;" vertex="1" parent="125">
                    <mxGeometry width="40" height="40" as="geometry"/>
                </mxCell>
                <mxCell id="127" value="" style="whiteSpace=wrap;html=1;aspect=fixed;fontFamily=Verdana;fontSize=18;" vertex="1" parent="125">
                    <mxGeometry x="40" width="40" height="40" as="geometry"/>
                </mxCell>
                <mxCell id="128" value="" style="group" vertex="1" connectable="0" parent="1">
                    <mxGeometry x="2840" y="720" width="80" height="40" as="geometry"/>
                </mxCell>
                <mxCell id="129" value="6" style="whiteSpace=wrap;html=1;aspect=fixed;fontFamily=Verdana;fontSize=18;" vertex="1" parent="128">
                    <mxGeometry width="40" height="40" as="geometry"/>
                </mxCell>
                <mxCell id="130" value="" style="whiteSpace=wrap;html=1;aspect=fixed;fontFamily=Verdana;fontSize=18;" vertex="1" parent="128">
                    <mxGeometry x="40" width="40" height="40" as="geometry"/>
                </mxCell>
                <mxCell id="131" value="" style="group" vertex="1" connectable="0" parent="1">
                    <mxGeometry x="2960" y="720" width="80" height="40" as="geometry"/>
                </mxCell>
                <mxCell id="132" value="5&lt;span style=&quot;color: rgba(0, 0, 0, 0); font-family: monospace; font-size: 0px; text-align: start;&quot;&gt;%3CmxGraphModel%3E%3Croot%3E%3CmxCell%20id%3D%220%22%2F%3E%3CmxCell%20id%3D%221%22%20parent%3D%220%22%2F%3E%3CmxCell%20id%3D%222%22%20value%3D%22%22%20style%3D%22group%22%20vertex%3D%221%22%20connectable%3D%220%22%20parent%3D%221%22%3E%3CmxGeometry%20x%3D%222720%22%20y%3D%22770%22%20width%3D%2280%22%20height%3D%2240%22%20as%3D%22geometry%22%2F%3E%3C%2FmxCell%3E%3CmxCell%20id%3D%223%22%20value%3D%224%22%20style%3D%22whiteSpace%3Dwrap%3Bhtml%3D1%3Baspect%3Dfixed%3BfontFamily%3DVerdana%3BfontSize%3D18%3B%22%20vertex%3D%221%22%20parent%3D%222%22%3E%3CmxGeometry%20width%3D%2240%22%20height%3D%2240%22%20as%3D%22geometry%22%2F%3E%3C%2FmxCell%3E%3CmxCell%20id%3D%224%22%20value%3D%22%26amp%3Bgt%3B%22%20style%3D%22whiteSpace%3Dwrap%3Bhtml%3D1%3Baspect%3Dfixed%3BfontFamily%3DVerdana%3BfontSize%3D18%3B%22%20vertex%3D%221%22%20parent%3D%222%22%3E%3CmxGeometry%20x%3D%2240%22%20width%3D%2240%22%20height%3D%2240%22%20as%3D%22geometry%22%2F%3E%3C%2FmxCell%3E%3C%2Froot%3E%3C%2FmxGraphModel%3E&lt;/span&gt;" style="whiteSpace=wrap;html=1;aspect=fixed;fontFamily=Verdana;fontSize=18;" vertex="1" parent="131">
                    <mxGeometry width="40" height="40" as="geometry"/>
                </mxCell>
                <mxCell id="133" value="&amp;gt;" style="whiteSpace=wrap;html=1;aspect=fixed;fontFamily=Verdana;fontSize=18;" vertex="1" parent="131">
                    <mxGeometry x="40" width="40" height="40" as="geometry"/>
                </mxCell>
                <mxCell id="135" value="" style="group" vertex="1" connectable="0" parent="1">
                    <mxGeometry x="2720" y="770" width="80" height="40" as="geometry"/>
                </mxCell>
                <mxCell id="136" value="6" style="whiteSpace=wrap;html=1;aspect=fixed;fontFamily=Verdana;fontSize=18;" vertex="1" parent="135">
                    <mxGeometry width="40" height="40" as="geometry"/>
                </mxCell>
                <mxCell id="137" value="" style="whiteSpace=wrap;html=1;aspect=fixed;fontFamily=Verdana;fontSize=18;" vertex="1" parent="135">
                    <mxGeometry x="40" width="40" height="40" as="geometry"/>
                </mxCell>
                <mxCell id="138" value="" style="group" vertex="1" connectable="0" parent="1">
                    <mxGeometry x="2840" y="770" width="80" height="40" as="geometry"/>
                </mxCell>
                <mxCell id="139" value="3" style="whiteSpace=wrap;html=1;aspect=fixed;fontFamily=Verdana;fontSize=18;" vertex="1" parent="138">
                    <mxGeometry width="40" height="40" as="geometry"/>
                </mxCell>
                <mxCell id="140" value="&amp;gt;" style="whiteSpace=wrap;html=1;aspect=fixed;fontFamily=Verdana;fontSize=18;" vertex="1" parent="138">
                    <mxGeometry x="40" width="40" height="40" as="geometry"/>
                </mxCell>
                <mxCell id="142" value="" style="group" vertex="1" connectable="0" parent="1">
                    <mxGeometry x="2720" y="820" width="80" height="40" as="geometry"/>
                </mxCell>
                <mxCell id="143" value="4" style="whiteSpace=wrap;html=1;aspect=fixed;fontFamily=Verdana;fontSize=18;" vertex="1" parent="142">
                    <mxGeometry width="40" height="40" as="geometry"/>
                </mxCell>
                <mxCell id="144" value="&amp;gt;" style="whiteSpace=wrap;html=1;aspect=fixed;fontFamily=Verdana;fontSize=18;" vertex="1" parent="142">
                    <mxGeometry x="40" width="40" height="40" as="geometry"/>
                </mxCell>
                <mxCell id="145" value="" style="group" vertex="1" connectable="0" parent="1">
                    <mxGeometry x="2720" y="870" width="80" height="40" as="geometry"/>
                </mxCell>
                <mxCell id="146" value="2" style="whiteSpace=wrap;html=1;aspect=fixed;fontFamily=Verdana;fontSize=18;" vertex="1" parent="145">
                    <mxGeometry width="40" height="40" as="geometry"/>
                </mxCell>
                <mxCell id="147" value="&amp;gt;" style="whiteSpace=wrap;html=1;aspect=fixed;fontFamily=Verdana;fontSize=18;" vertex="1" parent="145">
                    <mxGeometry x="40" width="40" height="40" as="geometry"/>
                </mxCell>
                <mxCell id="148" value="" style="group" vertex="1" connectable="0" parent="1">
                    <mxGeometry x="2720" y="920" width="80" height="40" as="geometry"/>
                </mxCell>
                <mxCell id="149" value="4" style="whiteSpace=wrap;html=1;aspect=fixed;fontFamily=Verdana;fontSize=18;" vertex="1" parent="148">
                    <mxGeometry width="40" height="40" as="geometry"/>
                </mxCell>
                <mxCell id="150" value="" style="whiteSpace=wrap;html=1;aspect=fixed;fontFamily=Verdana;fontSize=18;" vertex="1" parent="148">
                    <mxGeometry x="40" width="40" height="40" as="geometry"/>
                </mxCell>
                <mxCell id="151" value="" style="group" vertex="1" connectable="0" parent="1">
                    <mxGeometry x="2840" y="920" width="80" height="40" as="geometry"/>
                </mxCell>
                <mxCell id="152" value="6" style="whiteSpace=wrap;html=1;aspect=fixed;fontFamily=Verdana;fontSize=18;" vertex="1" parent="151">
                    <mxGeometry width="40" height="40" as="geometry"/>
                </mxCell>
                <mxCell id="153" value="&amp;gt;" style="whiteSpace=wrap;html=1;aspect=fixed;fontFamily=Verdana;fontSize=18;" vertex="1" parent="151">
                    <mxGeometry x="40" width="40" height="40" as="geometry"/>
                </mxCell>
                <mxCell id="154" value="" style="group" vertex="1" connectable="0" parent="1">
                    <mxGeometry x="2720" y="970" width="80" height="40" as="geometry"/>
                </mxCell>
                <mxCell id="155" value="3" style="whiteSpace=wrap;html=1;aspect=fixed;fontFamily=Verdana;fontSize=18;" vertex="1" parent="154">
                    <mxGeometry width="40" height="40" as="geometry"/>
                </mxCell>
                <mxCell id="156" value="&amp;gt;" style="whiteSpace=wrap;html=1;aspect=fixed;fontFamily=Verdana;fontSize=18;" vertex="1" parent="154">
                    <mxGeometry x="40" width="40" height="40" as="geometry"/>
                </mxCell>
                <mxCell id="157" style="edgeStyle=none;html=1;exitX=1;exitY=0.5;exitDx=0;exitDy=0;entryX=0;entryY=0.5;entryDx=0;entryDy=0;fontFamily=Verdana;fontSize=18;" edge="1" parent="1" source="57" target="126">
                    <mxGeometry relative="1" as="geometry"/>
                </mxCell>
                <mxCell id="158" style="edgeStyle=none;html=1;exitX=1;exitY=0.5;exitDx=0;exitDy=0;entryX=0;entryY=0.5;entryDx=0;entryDy=0;fontFamily=Verdana;fontSize=18;" edge="1" parent="1" source="127" target="129">
                    <mxGeometry relative="1" as="geometry"/>
                </mxCell>
                <mxCell id="159" style="edgeStyle=none;html=1;exitX=1;exitY=0.5;exitDx=0;exitDy=0;entryX=0;entryY=0.5;entryDx=0;entryDy=0;fontFamily=Verdana;fontSize=18;" edge="1" parent="1" source="130" target="132">
                    <mxGeometry relative="1" as="geometry"/>
                </mxCell>
                <mxCell id="160" style="edgeStyle=none;html=1;exitX=1;exitY=0.5;exitDx=0;exitDy=0;fontFamily=Verdana;fontSize=18;" edge="1" parent="1" source="137" target="139">
                    <mxGeometry relative="1" as="geometry"/>
                </mxCell>
                <mxCell id="161" style="edgeStyle=none;html=1;exitX=1;exitY=0.5;exitDx=0;exitDy=0;entryX=0;entryY=0.5;entryDx=0;entryDy=0;fontFamily=Verdana;fontSize=18;" edge="1" parent="1" source="150" target="152">
                    <mxGeometry relative="1" as="geometry"/>
                </mxCell>
            </root>
        </mxGraphModel>
    </diagram>
</mxfile>